<svg width="24" height="24" viewBox="0 0 24 24" fill="none" xmlns="http://www.w3.org/2000/svg">
    <path d="M17.657 16.657L13.414 20.9C13.039 21.275 12.533 21.484 12.001 21.484C11.47 21.484 10.964 21.275 10.589 20.9L6.34601 16.657C4.85501 15.166 3.95801 13.187 3.82701 11.096C3.69601 9.00498 4.33701 6.92898 5.63701 5.24798C6.93701 3.56698 8.81601 2.39098 10.897 1.94298C12.978 1.49498 15.147 1.80298 17.029 2.81098C18.911 3.81898 20.413 5.47098 21.29 7.48798C22.167 9.50498 22.369 11.755 21.862 13.893C21.355 16.031 20.17 17.924 18.48 19.269" stroke="#DC2626" stroke-width="2" stroke-linecap="round" stroke-linejoin="round"/>
    <path d="M15 11C15 12.6569 13.6569 14 12 14C10.3431 14 9 12.6569 9 11C9 9.34315 10.3431 8 12 8C13.6569 8 15 9.34315 15 11Z" stroke="#DC2626" stroke-width="2" stroke-linecap="round" stroke-linejoin="round"/>
</svg> 